<?xml version="1.0" encoding="utf-8"?>
<!-- Generator: Adobe Illustrator 27.3.1, SVG Export Plug-In . SVG Version: 6.00 Build 0)  -->
<svg version="1.1" id="Calque_1" xmlns="http://www.w3.org/2000/svg" xmlns:xlink="http://www.w3.org/1999/xlink" x="0px" y="0px"
	 viewBox="0 0 141.73 85.04" style="enable-background:new 0 0 141.73 85.04;" xml:space="preserve">
<style type="text/css">
	.st0{fill:#00A787;}
</style>
<g>
	<path d="M-32.71,60h-4.54l-2.2-6.04h-11.9l-2.2,6.04h-4.57l9.77-26.88h5.9L-32.71,60z M-41.08,49.46l-4.33-11.88l-4.29,11.88
		H-41.08z"/>
	<path class="st0" d="M-27.51,60.73c-0.81,0-1.51-0.31-2.08-0.94c-0.57-0.63-0.85-1.39-0.85-2.29s0.28-1.66,0.85-2.29
		c0.57-0.63,1.26-0.94,2.08-0.94c0.81,0,1.51,0.31,2.08,0.94c0.57,0.63,0.85,1.39,0.85,2.29s-0.28,1.66-0.85,2.29
		C-26,60.41-26.7,60.73-27.51,60.73z"/>
	<path d="M-2.25,45.84c0.33,0.18,0.72,0.44,1.17,0.79c0.45,0.35,0.88,0.79,1.27,1.33c0.4,0.54,0.73,1.17,1.01,1.88
		c0.28,0.72,0.42,1.54,0.42,2.46c0,1.05-0.18,2.05-0.54,2.98s-0.85,1.75-1.48,2.44s-1.37,1.24-2.22,1.65
		C-3.47,59.79-4.37,60-5.32,60h-14.76V33.11h14.1c0.91,0,1.77,0.19,2.58,0.58c0.81,0.38,1.52,0.9,2.11,1.56
		c0.59,0.65,1.06,1.43,1.41,2.33c0.35,0.9,0.52,1.85,0.52,2.85c0,0.69-0.1,1.33-0.31,1.92c-0.21,0.59-0.46,1.12-0.75,1.58
		c-0.29,0.46-0.61,0.85-0.94,1.17C-1.7,45.41-1.99,45.66-2.25,45.84z M-3.99,40.81c0-0.9-0.28-1.65-0.84-2.27
		c-0.56-0.62-1.24-0.92-2.06-0.92h-8.83v6.35h8.83c0.81,0,1.5-0.3,2.06-0.9C-4.27,42.45-3.99,41.7-3.99,40.81z M-6.16,55.5
		c0.46,0,0.9-0.1,1.29-0.29c0.4-0.19,0.74-0.45,1.03-0.77c0.29-0.32,0.52-0.71,0.7-1.15c0.17-0.45,0.26-0.92,0.26-1.4
		c0-1-0.32-1.85-0.96-2.54c-0.64-0.69-1.41-1.04-2.32-1.04h-9.56v7.19H-6.16z"/>
	<path class="st0" d="M17.78,32.38c1.77,0,3.43,0.37,4.99,1.12c1.56,0.74,2.93,1.76,4.1,3.04c1.17,1.28,2.1,2.78,2.77,4.5
		c0.67,1.72,1.01,3.55,1.01,5.5c0,1.95-0.34,3.78-1.01,5.5c-0.67,1.72-1.6,3.22-2.77,4.52c-1.18,1.29-2.54,2.31-4.1,3.06
		c-1.56,0.74-3.22,1.12-4.99,1.12c-1.77,0-3.43-0.37-4.99-1.12c-1.56-0.74-2.92-1.76-4.08-3.06c-1.16-1.3-2.08-2.8-2.76-4.52
		c-0.68-1.72-1.01-3.55-1.01-5.5c0-1.95,0.34-3.78,1.01-5.5c0.67-1.72,1.59-3.22,2.76-4.5c1.16-1.28,2.52-2.29,4.08-3.04
		C14.35,32.75,16.01,32.38,17.78,32.38z M17.78,55.77c1.16,0,2.25-0.24,3.26-0.73c1.01-0.49,1.9-1.15,2.65-1.98
		c0.76-0.83,1.35-1.81,1.8-2.94c0.44-1.13,0.66-2.32,0.66-3.58c0-1.28-0.22-2.48-0.66-3.6c-0.44-1.12-1.04-2.09-1.8-2.92
		c-0.76-0.83-1.64-1.49-2.65-1.98c-1.01-0.49-2.1-0.73-3.26-0.73c-1.14,0-2.22,0.24-3.24,0.73c-1.02,0.49-1.91,1.15-2.65,1.98
		c-0.74,0.83-1.34,1.81-1.78,2.92c-0.44,1.12-0.66,2.31-0.66,3.6c0,1.26,0.22,2.45,0.66,3.58c0.44,1.13,1.03,2.11,1.78,2.94
		c0.74,0.83,1.63,1.49,2.65,1.98C15.56,55.52,16.64,55.77,17.78,55.77z"/>
	<path d="M57.66,33.11v15.04c0,1.72-0.3,3.35-0.91,4.88c-0.6,1.54-1.42,2.87-2.46,4c-1.04,1.13-2.24,2.03-3.63,2.69
		c-1.38,0.67-2.87,1-4.45,1c-1.58,0-3.07-0.33-4.45-1c-1.38-0.67-2.59-1.56-3.63-2.69c-1.04-1.13-1.86-2.46-2.46-4
		c-0.61-1.54-0.91-3.17-0.91-4.88V33.11h4.5v15.04c0,1.05,0.18,2.04,0.54,2.96c0.36,0.92,0.85,1.73,1.48,2.42s1.37,1.24,2.22,1.63
		c0.85,0.4,1.75,0.6,2.7,0.6c0.95,0,1.85-0.2,2.7-0.6c0.85-0.4,1.59-0.94,2.22-1.63s1.13-1.5,1.5-2.42
		c0.37-0.92,0.56-1.91,0.56-2.96V33.11H57.66z"/>
	<path d="M86.2,33.11V60h-4.5V48.84H68.41V60h-4.5V33.11h4.5v11.08H81.7V33.11H86.2z"/>
	<path d="M119.28,60h-4.47V42.34l-7.54,11.62h-2.62l-7.54-11.62V60h-4.5V33.11h3.52l9.8,15.15l9.84-15.15h3.49V60z"/>
	<path class="st0" d="M148.41,60h-4.54l-2.2-6.04h-11.9l-2.2,6.04h-4.57l9.77-26.88h5.9L148.41,60z M140.04,49.46l-4.33-11.88
		l-4.29,11.88H140.04z"/>
	<path d="M162.68,33.11c1.65,0,3.21,0.35,4.68,1.06c1.47,0.71,2.74,1.66,3.82,2.87c1.08,1.21,1.94,2.63,2.56,4.27
		c0.63,1.64,0.94,3.38,0.94,5.23c0,1.85-0.31,3.59-0.94,5.23c-0.63,1.64-1.48,3.07-2.56,4.29c-1.08,1.22-2.36,2.18-3.82,2.88
		c-1.47,0.71-3.02,1.06-4.68,1.06h-10.5V33.11H162.68z M162.54,55.19c1.05,0,2.03-0.22,2.97-0.67s1.74-1.07,2.44-1.87
		c0.7-0.8,1.25-1.72,1.66-2.77c0.41-1.05,0.61-2.17,0.61-3.35c0-1.21-0.2-2.33-0.61-3.37c-0.41-1.04-0.96-1.95-1.66-2.75
		c-0.7-0.79-1.51-1.42-2.44-1.87c-0.93-0.45-1.92-0.67-2.97-0.67h-5.86v17.31H162.54z"/>
	<path d="M199.84,33.11l-9.94,16.19V60h-4.5V49.31l-9.91-16.19h5.13l7.05,11.5l7.05-11.5H199.84z"/>
</g>
</svg>
